<svg id="visual" viewBox="0 0 900 150" width="900" height="150" xmlns="http://www.w3.org/2000/svg" xmlns:xlink="http://www.w3.org/1999/xlink" version="1.1"><rect x="0" y="0" width="900" height="150" fill="#23232e"></rect><path d="M0 43L21.5 42.5C43 42 86 41 128.8 40.8C171.7 40.7 214.3 41.3 257.2 43.3C300 45.3 343 48.7 385.8 52.7C428.7 56.7 471.3 61.3 514.2 63C557 64.7 600 63.3 642.8 59.7C685.7 56 728.3 50 771.2 45.8C814 41.7 857 39.3 878.5 38.2L900 37L900 151L878.5 151C857 151 814 151 771.2 151C728.3 151 685.7 151 642.8 151C600 151 557 151 514.2 151C471.3 151 428.7 151 385.8 151C343 151 300 151 257.2 151C214.3 151 171.7 151 128.8 151C86 151 43 151 21.5 151L0 151Z" fill="#f0a029"></path><path d="M0 87L21.5 81.3C43 75.7 86 64.3 128.8 60.7C171.7 57 214.3 61 257.2 63.2C300 65.3 343 65.7 385.8 66.7C428.7 67.7 471.3 69.3 514.2 71.5C557 73.7 600 76.3 642.8 75.3C685.7 74.3 728.3 69.7 771.2 70.5C814 71.3 857 77.7 878.5 80.8L900 84L900 151L878.5 151C857 151 814 151 771.2 151C728.3 151 685.7 151 642.8 151C600 151 557 151 514.2 151C471.3 151 428.7 151 385.8 151C343 151 300 151 257.2 151C214.3 151 171.7 151 128.8 151C86 151 43 151 21.5 151L0 151Z" fill="#e3714b"></path><path d="M0 91L21.5 90.8C43 90.7 86 90.3 128.8 87.2C171.7 84 214.3 78 257.2 76C300 74 343 76 385.8 78.5C428.7 81 471.3 84 514.2 85.8C557 87.7 600 88.3 642.8 88C685.7 87.7 728.3 86.3 771.2 88C814 89.7 857 94.3 878.5 96.7L900 99L900 151L878.5 151C857 151 814 151 771.2 151C728.3 151 685.7 151 642.8 151C600 151 557 151 514.2 151C471.3 151 428.7 151 385.8 151C343 151 300 151 257.2 151C214.3 151 171.7 151 128.8 151C86 151 43 151 21.5 151L0 151Z" fill="#bc5260"></path><path d="M0 92L21.5 95.3C43 98.7 86 105.3 128.8 106.8C171.7 108.3 214.3 104.7 257.2 101.3C300 98 343 95 385.8 96.7C428.7 98.3 471.3 104.7 514.2 108C557 111.3 600 111.7 642.8 108.7C685.7 105.7 728.3 99.3 771.2 97.7C814 96 857 99 878.5 100.5L900 102L900 151L878.5 151C857 151 814 151 771.2 151C728.3 151 685.7 151 642.8 151C600 151 557 151 514.2 151C471.3 151 428.7 151 385.8 151C343 151 300 151 257.2 151C214.3 151 171.7 151 128.8 151C86 151 43 151 21.5 151L0 151Z" fill="#844263"></path><path d="M0 125L21.5 123.2C43 121.3 86 117.7 128.8 114.8C171.7 112 214.3 110 257.2 109C300 108 343 108 385.8 111.2C428.7 114.3 471.3 120.7 514.2 123.7C557 126.7 600 126.3 642.8 125C685.7 123.7 728.3 121.3 771.2 120.7C814 120 857 121 878.5 121.5L900 122L900 151L878.5 151C857 151 814 151 771.2 151C728.3 151 685.7 151 642.8 151C600 151 557 151 514.2 151C471.3 151 428.7 151 385.8 151C343 151 300 151 257.2 151C214.3 151 171.7 151 128.8 151C86 151 43 151 21.5 151L0 151Z" fill="#4c3551"></path><path d="M0 126L21.5 125.7C43 125.3 86 124.7 128.8 125C171.7 125.3 214.3 126.7 257.2 128.7C300 130.7 343 133.3 385.8 132.8C428.7 132.3 471.3 128.7 514.2 128C557 127.3 600 129.7 642.8 131.5C685.7 133.3 728.3 134.7 771.2 134C814 133.3 857 130.7 878.5 129.3L900 128L900 151L878.5 151C857 151 814 151 771.2 151C728.3 151 685.7 151 642.8 151C600 151 557 151 514.2 151C471.3 151 428.7 151 385.8 151C343 151 300 151 257.2 151C214.3 151 171.7 151 128.8 151C86 151 43 151 21.5 151L0 151Z" fill="#23232e"></path></svg>