<svg id="visual" viewBox="0 0 900 150" width="900" height="150" xmlns="http://www.w3.org/2000/svg" xmlns:xlink="http://www.w3.org/1999/xlink" version="1.1"><rect x="0" y="0" width="900" height="150" fill="#23232e"></rect><path d="M0 77L21.5 73.8C43 70.7 86 64.3 128.8 64.2C171.7 64 214.3 70 257.2 68.3C300 66.7 343 57.3 385.8 55.5C428.7 53.7 471.3 59.3 514.2 61.7C557 64 600 63 642.8 62.3C685.7 61.7 728.3 61.3 771.2 62.7C814 64 857 67 878.5 68.5L900 70L900 151L878.5 151C857 151 814 151 771.2 151C728.3 151 685.7 151 642.8 151C600 151 557 151 514.2 151C471.3 151 428.7 151 385.8 151C343 151 300 151 257.2 151C214.3 151 171.7 151 128.8 151C86 151 43 151 21.5 151L0 151Z" fill="#9ad91a"></path><path d="M0 77L21.5 78.8C43 80.7 86 84.3 128.8 86.5C171.7 88.7 214.3 89.3 257.2 89.3C300 89.3 343 88.7 385.8 85C428.7 81.3 471.3 74.7 514.2 73.3C557 72 600 76 642.8 76.7C685.7 77.3 728.3 74.7 771.2 75C814 75.3 857 78.7 878.5 80.3L900 82L900 151L878.5 151C857 151 814 151 771.2 151C728.3 151 685.7 151 642.8 151C600 151 557 151 514.2 151C471.3 151 428.7 151 385.8 151C343 151 300 151 257.2 151C214.3 151 171.7 151 128.8 151C86 151 43 151 21.5 151L0 151Z" fill="#00c28e"></path><path d="M0 98L21.5 96.3C43 94.7 86 91.3 128.8 89C171.7 86.7 214.3 85.3 257.2 88.2C300 91 343 98 385.8 99.2C428.7 100.3 471.3 95.7 514.2 93C557 90.3 600 89.7 642.8 90.5C685.7 91.3 728.3 93.7 771.2 96.7C814 99.7 857 103.3 878.5 105.2L900 107L900 151L878.5 151C857 151 814 151 771.2 151C728.3 151 685.7 151 642.8 151C600 151 557 151 514.2 151C471.3 151 428.7 151 385.8 151C343 151 300 151 257.2 151C214.3 151 171.7 151 128.8 151C86 151 43 151 21.5 151L0 151Z" fill="#009aab"></path><path d="M0 123L21.5 121.8C43 120.7 86 118.3 128.8 116.3C171.7 114.3 214.3 112.7 257.2 112.7C300 112.7 343 114.3 385.8 113.3C428.7 112.3 471.3 108.7 514.2 109.7C557 110.7 600 116.3 642.8 117.8C685.7 119.3 728.3 116.7 771.2 113.7C814 110.7 857 107.3 878.5 105.7L900 104L900 151L878.5 151C857 151 814 151 771.2 151C728.3 151 685.7 151 642.8 151C600 151 557 151 514.2 151C471.3 151 428.7 151 385.8 151C343 151 300 151 257.2 151C214.3 151 171.7 151 128.8 151C86 151 43 151 21.5 151L0 151Z" fill="#3e6f8f"></path><path d="M0 122L21.5 121.8C43 121.7 86 121.3 128.8 123.3C171.7 125.3 214.3 129.7 257.2 129.8C300 130 343 126 385.8 126.2C428.7 126.3 471.3 130.7 514.2 130.7C557 130.7 600 126.3 642.8 125.5C685.7 124.7 728.3 127.3 771.2 130.2C814 133 857 136 878.5 137.5L900 139L900 151L878.5 151C857 151 814 151 771.2 151C728.3 151 685.7 151 642.8 151C600 151 557 151 514.2 151C471.3 151 428.7 151 385.8 151C343 151 300 151 257.2 151C214.3 151 171.7 151 128.8 151C86 151 43 151 21.5 151L0 151Z" fill="#48485e"></path></svg>